<?xml version="1.0" encoding="utf-8"?>
<!-- Generator: Adobe Illustrator 17.0.0, SVG Export Plug-In . SVG Version: 6.00 Build 0)  -->
<!DOCTYPE svg PUBLIC "-//W3C//DTD SVG 1.1//EN" "http://www.w3.org/Graphics/SVG/1.1/DTD/svg11.dtd">
<svg version="1.1" id="圖層_1" xmlns="http://www.w3.org/2000/svg" xmlns:xlink="http://www.w3.org/1999/xlink" x="0px" y="0px"
	 width="105.5px" height="68.928px" viewBox="0 0 105.5 68.928" enable-background="new 0 0 105.5 68.928" xml:space="preserve">
<polygon fill="#CFE8EA" points="41,23 104,23 32,59 "/>
<g>
	<g>
		<path fill="#414140" d="M9.922,33.071c-0.192,0.589-0.477,1.316-0.852,2.18L8.5,36.493v10.375H7.125v-8.055
			c-0.167,0.224-0.497,0.625-0.992,1.203l-0.75-1.453c1.396-1.656,2.435-3.609,3.117-5.86L9.922,33.071z M19.312,34.657
			c-0.261,1.802-0.648,3.263-1.164,4.383l-1.312-0.547c0.333-0.808,0.583-1.648,0.75-2.523H12.32
			c-0.63,1.188-1.419,2.317-2.367,3.391l-0.961-1.039c1.317-1.479,2.375-3.325,3.172-5.54l1.359,0.336
			c-0.245,0.683-0.442,1.196-0.594,1.54H19.312z M12.945,39.47c-0.734,2.433-1.646,4.339-2.734,5.719l-1.117-0.867
			c1.104-1.531,1.956-3.271,2.555-5.219L12.945,39.47z M15.172,45.298c0,0.989-0.495,1.484-1.484,1.484
			c-0.88,0-1.479-0.006-1.797-0.016l-0.461-1.422l1.547,0.055c0.526,0,0.789-0.177,0.789-0.531v-7.891h1.406V45.298z M19.703,44.548
			l-1.297,0.672c-0.479-1.739-1.258-3.622-2.336-5.648l1.242-0.516C18.433,41.134,19.229,42.965,19.703,44.548z"/>
		<path fill="#414140" d="M38.692,34.493h-1.469v10.82c0,0.464-0.124,0.817-0.371,1.062c-0.247,0.244-0.54,0.379-0.879,0.402
			s-1.386,0.035-3.141,0.035l-0.477-1.5c0.703,0.042,1.37,0.062,2,0.062s0.985-0.009,1.066-0.027s0.155-0.07,0.223-0.156
			s0.102-0.179,0.102-0.277V34.493H24.786v-1.422h13.906V34.493z M33.349,43.376h-7.055v-6.797h7.055V43.376z M31.896,41.985V37.97
			h-4.148v4.016H31.896z"/>
		<path fill="#414140" d="M50.658,45.571c0,0.308-0.075,0.56-0.227,0.758c-0.151,0.197-0.329,0.332-0.535,0.402
			s-0.562,0.105-1.066,0.105c-0.239,0-0.558-0.008-0.953-0.023l-0.336-1.328c0.255,0.021,0.539,0.031,0.852,0.031
			c0.433,0,0.687-0.023,0.762-0.07s0.113-0.117,0.113-0.211v-1.727c-1.87,0.812-2.847,1.216-2.93,1.211l-0.367-0.672
			c-0.172,1.114-0.481,2.064-0.93,2.852l-1.133-0.961c0.521-0.875,0.781-2.31,0.781-4.305v-3.453h5.969V45.571z M51.666,36.767
			l-1.148,0.773c-0.208-0.359-0.396-0.644-0.562-0.852c-1.714,0.297-3.581,0.531-5.602,0.703l-0.336-1.102
			c1.141-1.031,2.016-2.211,2.625-3.54l1.375,0.438c-0.661,1.188-1.333,2.115-2.016,2.782c0.828-0.052,1.859-0.185,3.094-0.398
			c-0.354-0.453-0.734-0.859-1.141-1.219l1.172-0.797C50.163,34.598,51.01,35.668,51.666,36.767z M49.268,42.11v-2.625H46.15v0.867
			c1.052,0.125,1.974,0.317,2.766,0.578l-0.477,1.18c-0.442-0.151-1.216-0.315-2.32-0.492c0,0.573-0.023,1.18-0.07,1.82
			C46.7,43.267,47.772,42.824,49.268,42.11z M57.955,44.001c-0.036,1.062-0.149,1.722-0.34,1.977s-0.388,0.442-0.594,0.562
			c-0.206,0.119-0.996,0.18-2.371,0.18c-1.052,0-1.704-0.054-1.957-0.16c-0.253-0.107-0.444-0.28-0.574-0.52
			s-0.195-0.503-0.195-0.789v-5.617h1.391v2.062h4.164v1.266h-4.164v2.125c0,0.214,0.112,0.32,0.336,0.32h2.352
			c0.192,0,0.336-0.091,0.43-0.273s0.159-0.698,0.195-1.547L57.955,44.001z M57.768,39.118H53.33c-0.411,0-0.743-0.134-0.996-0.402
			s-0.379-0.613-0.379-1.035v-4.782h1.391v1.774h4.148v1.266h-4.148v1.617c0,0.058,0.038,0.12,0.113,0.188s0.149,0.102,0.223,0.102
			h4.086V39.118z"/>
		<path fill="#414140" d="M77.092,42.384H63.154v-1.133h3.828c-0.136-0.302-0.308-0.648-0.516-1.039h-1.484v-2.961h10.305v2.961
			h-1.461l-0.508,1.039h3.773V42.384z M76.725,34.72h-5.859v0.766h5.156v1.047H64.256v-1.047h5.172V34.72h-5.922v-1.055h5.922
			v-0.812h1.438v0.812h5.859V34.72z M75.701,46.798H74.24v-0.672h-8.219v0.672h-1.461v-3.711h11.141V46.798z M74.24,45.04v-0.844
			h-8.219v0.844H74.24z M73.857,39.188v-0.883H66.42v0.883H73.857z M72.209,40.212H68.1c0.177,0.396,0.31,0.742,0.398,1.039h3.188
			L72.209,40.212z"/>
		<path fill="#414140" d="M90.612,40.579h-2.734v0.859h2.414v0.977h-2.414v0.852h2.414v0.945h-2.414v0.938h1.969v1.078h-5.094v0.539
			h-1.328v-4.57c-0.255,0.297-0.474,0.521-0.656,0.672l-0.656-1.188c0.823-0.792,1.534-1.805,2.133-3.039l1.211,0.289
			c-0.052,0.172-0.146,0.375-0.281,0.609h1.273c-0.052-0.167-0.141-0.349-0.266-0.547l1.297-0.336
			c0.172,0.354,0.305,0.648,0.398,0.883h2.734V40.579z M85.847,35.392h-1.375v-0.688h-2.086v-1.18h2.086v-0.742h1.375V35.392z
			 M86.261,38.462h-3.375v-2.734h3.375V38.462z M85.073,37.524v-0.82h-0.945v0.82H85.073z M86.565,41.438v-0.859h-1.812v0.859
			H86.565z M86.565,43.267v-0.852h-1.812v0.852H86.565z M86.565,45.149v-0.938h-1.812v0.938H86.565z M90.276,38.462h-3.453v-2.734
			h3.453V38.462z M90.808,34.704h-2.148v0.688h-1.375v-2.61h1.375v0.742h2.148V34.704z M88.995,37.524v-0.82h-0.93v0.82H88.995z
			 M96.503,45.806l-0.914,1.141c-1.208-1.406-1.987-2.964-2.336-4.672c-0.406,1.901-1.153,3.458-2.242,4.672l-0.914-1.039
			c1.677-1.906,2.516-4.078,2.516-6.516V37.04h1.344v2.547c0,1.104,0.219,2.214,0.656,3.328S95.68,44.993,96.503,45.806z
			 M96.229,34.915c-0.036,2.058-0.3,3.778-0.789,5.164l-1.227-0.477c0.349-1.031,0.573-2.141,0.672-3.328h-2.273
			c-0.448,1.344-0.839,2.331-1.172,2.961l-1.07-0.93c0.792-1.63,1.331-3.497,1.617-5.602l1.266,0.227
			c-0.094,0.745-0.206,1.407-0.336,1.985H96.229z"/>
	</g>
</g>
<polygon opacity="0.3" fill="none" stroke="#414140" stroke-width="0.504" stroke-linecap="round" stroke-linejoin="round" stroke-miterlimit="10" stroke-dasharray="5.04" points="
	4,3 85,13.5 52.6,66 "/>
<rect id="_x3C_切片_x3E__26_" x="-6" y="-6" fill="none" width="111" height="78"/>
<g>
</g>
<g>
</g>
<g>
</g>
<g>
</g>
<g>
</g>
<g>
</g>
<g>
</g>
<g>
</g>
<g>
</g>
<g>
</g>
<g>
</g>
<g>
</g>
<g>
</g>
<g>
</g>
<g>
</g>
</svg>
