<?xml version="1.0" encoding="utf-8"?>
<!-- Generator: Adobe Illustrator 17.0.0, SVG Export Plug-In . SVG Version: 6.00 Build 0)  -->
<!DOCTYPE svg PUBLIC "-//W3C//DTD SVG 1.1//EN" "http://www.w3.org/Graphics/SVG/1.1/DTD/svg11.dtd">
<svg version="1.1" id="圖層_1" xmlns="http://www.w3.org/2000/svg" xmlns:xlink="http://www.w3.org/1999/xlink" x="0px" y="0px"
	 width="115.17px" height="74.375px" viewBox="0 0 115.17 74.375" enable-background="new 0 0 115.17 74.375" xml:space="preserve">
<polygon fill="#CFE8EA" points="45,26.375 108,26.375 36,62.375 "/>
<g>
	<g>
		<path fill="#414140" d="M23.617,49.117l-0.922,1.172c-3.114-2.359-5.164-4.836-6.148-7.43c-0.771,2.906-2.812,5.355-6.125,7.344
			l-0.961-1.164c4.203-2.619,6.305-6.039,6.305-10.257v-2.555h1.516v3.289c0,1.74,0.582,3.445,1.746,5.113
			C20.191,46.299,21.722,47.795,23.617,49.117z"/>
		<path fill="#414140" d="M42.356,38.336H32.114c-0.786,1.214-1.602,2.146-2.445,2.796l-1.008-0.961
			c1.172-0.937,2.206-2.301,3.102-4.093l1.406,0.367c-0.062,0.151-0.18,0.386-0.352,0.703h9.539V38.336z M32.786,47.437
			c-0.755,0.912-1.805,1.75-3.148,2.516l-0.977-1.055c1.276-0.666,2.278-1.418,3.008-2.258L32.786,47.437z M38.786,46.226H34.63
			v3.945h-1.391v-3.945h-4.18v-1.219h4.18V42.75h1.391v2.258h4.156V46.226z M32.567,44.14l-1.203,0.656
			c-0.526-0.594-1.05-1.098-1.57-1.516l1.219-0.703C31.664,43.099,32.182,43.621,32.567,44.14z M42.888,47.039
			c-0.13,0.99-0.333,1.771-0.609,2.344c-0.276,0.573-0.667,0.859-1.172,0.859c-0.339,0-0.637-0.137-0.895-0.41
			s-0.483-0.947-0.676-2.023c-0.192-1.074-0.289-2.414-0.289-4.02c0-0.531,0.013-1.051,0.039-1.562h-9.023v-1.203h10.461
			c-0.031,0.891-0.047,1.738-0.047,2.539c0,1.85,0.066,3.145,0.199,3.883c0.133,0.74,0.241,1.109,0.324,1.109
			c0.031,0,0.099-0.191,0.203-0.578c0.104-0.385,0.188-0.947,0.25-1.688L42.888,47.039z M41.458,40.187h-9.359v-1.07h9.359V40.187z
			 M38.919,48.976l-1.039,0.891c-0.859-0.885-1.745-1.668-2.656-2.352l1.055-0.906C37.227,47.312,38.106,48.101,38.919,48.976z
			 M38.099,43.297c-0.458,0.559-0.992,1.062-1.602,1.516l-1.18-0.734c0.661-0.557,1.167-1.031,1.516-1.422L38.099,43.297z"/>
		<path fill="#414140" d="M56.166,43.148h-8.148V41.89h2.117c-0.255-0.785-0.575-1.539-0.961-2.258l1.055-0.64h-1.891v-1.281h3.172
			c-0.161-0.411-0.386-0.838-0.672-1.281l1.406-0.367c0.255,0.401,0.511,0.951,0.766,1.648h2.883v1.281h-1.617l1.008,0.562
			c-0.229,0.641-0.555,1.42-0.977,2.336h1.859V43.148z M55.314,50.14h-1.375v-0.906h-3.602v0.906h-1.422v-5.883h6.398V50.14z
			 M53.939,47.953v-2.398h-3.602v2.398H53.939z M53.986,38.992h-3.547c0.453,0.943,0.831,1.91,1.133,2.898h1.234
			C53.405,40.687,53.799,39.722,53.986,38.992z M60.439,41.953c0.964,1.49,1.445,2.85,1.445,4.078c0,0.609-0.108,1.096-0.324,1.457
			c-0.216,0.363-0.478,0.604-0.785,0.723c-0.308,0.121-0.927,0.162-1.859,0.125l-0.398-1.375c0.433,0.043,0.88,0.062,1.344,0.062
			c0.183,0,0.333-0.062,0.453-0.191c0.12-0.127,0.18-0.426,0.18-0.895c0-1.182-0.5-2.426-1.5-3.734
			c0.5-1.322,0.948-2.768,1.344-4.335h-2.172v12.289h-1.344V36.578h4.875v1.289C61.333,39.274,60.913,40.636,60.439,41.953z"/>
		<path fill="#414140" d="M70.592,46.351c-0.917,1.703-1.784,3.026-2.602,3.969l-0.898-1.039c1.067-1.27,1.911-2.541,2.531-3.812
			L70.592,46.351z M73.795,38.43h-1.516v0.805h-1.383V38.43h-3.758v-1.211h3.758v-1.016h1.383v1.016h1.516V38.43z M70.451,43.726
			l-0.828,1.117c-0.589-0.547-1.411-1.117-2.469-1.711l0.805-1.117C68.865,42.496,69.696,43.066,70.451,43.726z M70.865,40.914
			l-0.781,1.148c-0.661-0.572-1.516-1.127-2.562-1.664l0.703-1.117C69.204,39.734,70.084,40.279,70.865,40.914z M81.248,44.304
			l-0.492,1.25c-2.109-0.416-3.773-0.949-4.992-1.602c-1.495,0.668-3.067,1.193-4.719,1.578l-0.609-1.227
			c1.63-0.316,2.974-0.703,4.031-1.156c-0.469-0.344-0.875-0.711-1.219-1.102l-1.453,0.945l-0.914-1.086
			c1.651-0.844,2.922-1.824,3.812-2.945l1.312,0.46c-0.172,0.246-0.312,0.418-0.422,0.516h4.227v1.211
			c-0.933,0.844-1.817,1.527-2.656,2.047C78.264,43.722,79.628,44.091,81.248,44.304z M79.701,50.187h-1.422v-0.633h-4.898v0.633
			h-1.406v-4.57h7.727V50.187z M78.279,48.336v-1.492h-4.898v1.492H78.279z M77.811,41.148h-3.422l-0.133,0.117
			c0.38,0.422,0.903,0.826,1.57,1.211C76.69,42.029,77.353,41.586,77.811,41.148z M81.107,38.43h-3.633v0.82h-1.359v-0.82h-1.633
			v-1.211h1.602l0.016-1.016h1.375v1.016h3.633V38.43z"/>
		<path fill="#414140" d="M100.292,44.476l-0.516,1.266c-2.349-0.307-4.466-0.846-6.352-1.617c-1.974,0.73-4.128,1.242-6.461,1.539
			l-0.547-1.297c1.891-0.16,3.7-0.512,5.43-1.055c-0.927-0.641-1.558-1.104-1.891-1.391c-0.677,0.512-1.339,0.965-1.984,1.359
			l-0.945-1.039c1.802-1.035,3.231-2.227,4.289-3.57h-3.148v2.21h-1.43v-3.507h5.711c-0.031-0.114-0.19-0.419-0.477-0.914
			l1.508-0.352c0.167,0.234,0.383,0.656,0.648,1.266h5.844v3.507h-1.438v-2.21h-6.992l1.086,0.609
			c-0.167,0.218-0.359,0.449-0.578,0.687h5.828v1.25c-1.036,0.859-2.013,1.568-2.93,2.125
			C96.667,43.927,98.448,44.304,100.292,44.476z M98.292,50.242h-1.453v-0.594h-6.961v0.594h-1.461v-4.578h9.875V50.242z
			 M96.839,48.351v-1.406h-6.961v1.406H96.839z M95.714,41.218h-4.57c0.667,0.562,1.411,1.059,2.234,1.484
			C94.326,42.203,95.104,41.709,95.714,41.218z"/>
	</g>
</g>
<polygon opacity="0.3" fill="none" stroke="#414140" stroke-width="0.504" stroke-linecap="round" stroke-linejoin="round" stroke-miterlimit="10" stroke-dasharray="5.04" points="
	8,6.375 89,16.875 56.6,69.375 "/>
</svg>
