<?xml version="1.0" encoding="utf-8"?>
<!-- Generator: Adobe Illustrator 17.0.0, SVG Export Plug-In . SVG Version: 6.00 Build 0)  -->
<!DOCTYPE svg PUBLIC "-//W3C//DTD SVG 1.1//EN" "http://www.w3.org/Graphics/SVG/1.1/DTD/svg11.dtd">
<svg version="1.1" id="圖層_1" xmlns="http://www.w3.org/2000/svg" xmlns:xlink="http://www.w3.org/1999/xlink" x="0px" y="0px"
	 width="111px" height="78px" viewBox="0 0 111 78" enable-background="new 0 0 111 78" xml:space="preserve">
<polygon fill="#CFE8EA" points="47,29 110,29 38,65 "/>
<g>
	<g>
		<path fill="#414140" d="M25.508,45.274h-7.164v7.18h-1.328v-1.359c-2.125,0.25-3.854,0.38-5.188,0.391l-0.352-1.266h1.328v-4.945
			h-1.219v-1.188h13.922V45.274z M23.57,43.501h-1.375v-3.633h-7.312v3.633h-1.344v-4.82H23.57V43.501z M17.016,46.056v-0.781
			h-2.852v0.781H17.016z M17.016,47.978V47.11h-2.852v0.867H17.016z M17.016,49.853v-0.805h-2.852v1.07
			C15.55,50.029,16.5,49.941,17.016,49.853z M21.633,41.626h-6.25v-1.055h6.25V41.626z M21.633,43.384h-6.25v-1.039h6.25V43.384z
			 M25.586,51.337l-0.734,1.234c-1.094-0.464-1.989-0.972-2.688-1.523c-0.891,0.656-1.847,1.143-2.867,1.461l-0.719-1.172
			c0.808-0.198,1.661-0.586,2.562-1.164c-0.641-0.688-1.216-1.617-1.727-2.789h-0.531v-1.242h6.031
			c-0.198,1.442-0.805,2.781-1.82,4.016C23.864,50.684,24.695,51.076,25.586,51.337z M23.219,47.384h-2.383
			c0.317,0.719,0.745,1.354,1.281,1.906C22.56,48.764,22.927,48.129,23.219,47.384z"/>
		<path fill="#414140" d="M37.927,42.493h-1.281v0.461c0,0.183,0.122,0.273,0.367,0.273h0.914v1.18H36.45
			c-0.714,0-1.07-0.383-1.07-1.148v-0.766h-1.297c-0.245,1.026-1.172,1.841-2.781,2.445l-0.625-1.086
			c1.031-0.317,1.688-0.771,1.969-1.359h-1.727V41.29h2.891v-0.75h-2.492v-1.188h2.492v-0.914h1.359v0.914h2.375v1.188h-2.375v0.75
			h2.758V42.493z M33.731,49.532c-0.442,1.172-1.003,2.153-1.68,2.945l-1.234-0.695c0.688-0.828,1.237-1.745,1.648-2.75
			L33.731,49.532z M37.841,47.837c-2.172,0.448-4.411,0.82-6.719,1.117l-0.273-1.234c1.224-0.114,2.216-0.242,2.977-0.383v-1.055
			h-2.305v-1.203h2.289v-1.258h1.359v1.258h2.242v1.203h-2.242v0.828l2.672-0.461V47.837z M37.185,52.173l-1.406,0.25
			c-0.083-0.886-0.323-1.914-0.719-3.086l1.359-0.32C36.794,50.095,37.049,51.146,37.185,52.173z M45.013,45.657
			c-0.125,1.183-0.298,1.985-0.52,2.41s-0.538,0.637-0.949,0.637c-0.433,0-0.766-0.249-1-0.746s-0.367-1.246-0.398-2.246
			s-0.047-2.302-0.047-3.906h-0.961c-0.031,1.052-0.128,2.075-0.289,3.07c0.411,0.547,0.776,1.122,1.094,1.727l-1.023,0.812
			c-0.177-0.354-0.359-0.675-0.547-0.961c-0.386,0.953-0.839,1.776-1.359,2.469l-1.219-0.703c0.734-0.995,1.273-2.047,1.617-3.156
			c-0.401-0.531-0.828-1.031-1.281-1.5l1.008-0.82c0.198,0.172,0.396,0.396,0.594,0.672c0.109-0.5,0.146-1.036,0.109-1.609H38.45
			v-1.297h1.406c0.026-0.886,0.034-1.575,0.023-2.07h1.289c0,0.536-0.011,1.227-0.031,2.07h2.305
			c-0.031,1.469-0.047,2.68-0.047,3.633c0,1.073,0.021,1.778,0.062,2.117s0.069,0.547,0.082,0.625s0.051,0.117,0.113,0.117
			c0.016,0,0.035-0.005,0.059-0.016s0.069-0.238,0.137-0.684s0.114-0.874,0.141-1.285L45.013,45.657z M40.966,52.087l-1.344,0.352
			c-0.323-1.104-0.734-2.112-1.234-3.023l1.344-0.414C40.268,50.001,40.68,51.029,40.966,52.087z M44.755,52.04l-1.328,0.516
			c-0.427-1.094-0.992-2.13-1.695-3.109l1.312-0.586C43.783,50.027,44.354,51.087,44.755,52.04z"/>
		<path fill="#414140" d="M56.275,45.353h-4.383v7.086h-1.453V38.798h5.836V45.353z M54.869,41.368v-1.281h-2.977v1.281H54.869z
			 M54.869,44.009v-1.406h-2.977v1.406H54.869z M63.416,51.181c0,0.417-0.163,0.727-0.488,0.93s-1.226,0.307-2.699,0.312
			l-0.477-1.422c1.052,0.016,1.688,0.011,1.906-0.016s0.328-0.133,0.328-0.32v-5.312h-4.43v-6.555h5.859V51.181z M61.986,41.368
			v-1.281h-2.992v1.281H61.986z M61.986,44.009v-1.406h-2.992v1.406H61.986z"/>
		<path fill="#414140" d="M83.248,43.337l-0.672,1.281c-0.411-0.083-0.875-0.216-1.391-0.398v6.016h-6.75l0.688,0.797
			c-1.505,0.692-3.281,1.205-5.328,1.539l-0.688-1.281c1.521-0.183,2.977-0.534,4.367-1.055h-2.352v-6.047h3.023l-0.609-0.883
			c1.87-0.474,3.263-1.305,4.18-2.492l1.453,0.32c-0.156,0.286-0.273,0.466-0.352,0.539C79.954,42.407,81.431,42.962,83.248,43.337z
			 M73.889,42.892h-4.656v-1.312h4.656V42.892z M73.748,40.345h-4.305v-1.281h4.305V40.345z M79.748,45.884v-0.562h-7.133v0.562
			H79.748z M79.748,47.517v-0.594h-7.133v0.594H79.748z M79.748,49.181v-0.625h-7.133v0.625H79.748z M82.967,40.524
			c-0.495,0.708-0.961,1.305-1.398,1.789l-1.211-0.719c0.136-0.156,0.422-0.513,0.859-1.07h-5.039
			c-0.489,0.562-0.958,1.031-1.406,1.406l-1.086-0.93c0.828-0.599,1.622-1.505,2.383-2.719l1.312,0.445
			c-0.047,0.183-0.148,0.37-0.305,0.562h5.891V40.524z M81.029,44.188c-1.073-0.349-2.114-0.862-3.125-1.539
			c-0.667,0.604-1.534,1.117-2.602,1.539H81.029z M83.154,51.399l-0.766,1.234c-1.396-0.448-2.958-0.773-4.688-0.977l0.734-1.203
			C80.123,50.6,81.696,50.915,83.154,51.399z"/>
		<path fill="#414140" d="M93.573,41.11h-5.188v-1.289h2.047c-0.083-0.245-0.253-0.575-0.508-0.992l1.406-0.531
			c0.281,0.526,0.516,1.034,0.703,1.523h1.539V41.11z M93.222,43.485h-4.453v-1.281h4.453V43.485z M93.222,45.821h-4.453v-1.266
			h4.453V45.821z M93.237,52.056h-1.406v-0.719h-1.68v1.102h-1.383v-5.547h4.469V52.056z M91.831,50.024V48.22h-1.68v1.805H91.831z
			 M102.503,48.696c-0.073,0.828-0.218,1.587-0.434,2.277c-0.216,0.689-0.425,1.121-0.625,1.293s-0.431,0.258-0.691,0.258
			c-0.317,0-0.593-0.121-0.824-0.363s-0.453-0.957-0.664-2.145s-0.316-2.255-0.316-3.203v-6.672h-2.164v4.312h1.719v1.383h-1.719
			v6.617h-1.375v-6.617h-1.484v-1.383h1.484v-4.312h-1.297v-1.344h6.211v8.336c0,1.239,0.172,2.438,0.516,3.594
			c0.198-0.729,0.325-1.667,0.383-2.812L102.503,48.696z"/>
	</g>
</g>
<polygon opacity="0.3" fill="none" stroke="#414140" stroke-width="0.504" stroke-linecap="round" stroke-linejoin="round" stroke-miterlimit="10" stroke-dasharray="5.04" points="
	10,8.625 91,19.125 58.6,71.625 "/>
</svg>
