<?xml version="1.0" encoding="utf-8"?>
<!-- Generator: Adobe Illustrator 17.0.0, SVG Export Plug-In . SVG Version: 6.00 Build 0)  -->
<!DOCTYPE svg PUBLIC "-//W3C//DTD SVG 1.1//EN" "http://www.w3.org/Graphics/SVG/1.1/DTD/svg11.dtd">
<svg version="1.1" id="圖層_1" xmlns="http://www.w3.org/2000/svg" xmlns:xlink="http://www.w3.org/1999/xlink" x="0px" y="0px"
	 width="25px" height="25px" viewBox="0 0 25 25" enable-background="new 0 0 25 25" xml:space="preserve">
<g opacity="0.5">
	<g>
		<path fill="#BDCCD4" d="M24.614,16.46c0-1.62-0.966-3.095-2.484-3.669l-8.576-3.317l-0.029-1.102
			c1.643-0.471,2.853-1.984,2.853-3.775c0-2.169-1.762-3.931-3.929-3.931c-1.068,0-2.541,0.825-3.343,2.038
			c-0.201,0.3-0.219,0.706-0.047,1.024c0.172,0.32,0.505,0.536,0.867,0.536h0.019c0.341,0,0.653-0.201,0.82-0.495
			c0.355-0.63,1.094-1.068,1.688-1.068c1.046,0,1.903,0.86,1.903,1.906c0,1.052-0.857,1.908-1.903,1.908h-0.005
			c-0.25,0-0.49,0.091-0.664,0.268c-0.177,0.177-0.276,0.415-0.271,0.665l0.024,2.02l-8.756,3.322
			c-1.516,0.575-2.505,2.047-2.505,3.669v0.625c0,1.817,1.422,3.397,3.239,3.397h4.989l-0.815-2.052H3.513
			c-0.698,0-1.226-0.646-1.226-1.346V16.46c0-0.784,0.471-1.494,1.202-1.773l6.689-2.534c-0.341,0.945-0.317,1.825-0.182,2.51
			l-1.333,0.547c-0.534,0.221-0.792,0.831-0.578,1.367l2.778,6.97c0.153,0.388,0.455,0.698,0.84,0.859
			c0.193,0.083,0.401,0.125,0.609,0.125c0.201,0,0.404-0.039,0.594-0.117l2.479-1.021c0.791-0.323,1.174-1.226,0.859-2.02
			l-2.783-6.98c-0.104-0.263-0.307-0.471-0.567-0.581c-0.133-0.057-0.271-0.085-0.412-0.085c-0.138,0-0.273,0.029-0.401,0.081
			l-1.106,0.453c-0.102-0.716-0.021-1.669,0.677-2.666l0.81-0.305l8.952,3.398c0.734,0.276,1.198,0.989,1.198,1.77v0.628
			c0,0.697-0.523,1.343-1.221,1.343h-5.182l0.813,2.054h4.369c1.814,0,3.254-1.567,3.254-3.385L24.614,16.46z M11.926,15.948
			c0.185,0.447-0.028,0.96-0.479,1.145c-0.451,0.185-0.964-0.031-1.148-0.479c-0.112-0.271-0.075-0.568,0.068-0.8
			c0.078,0.167,0.135,0.263,0.135,0.263c0.104,0.167,0.276,0.255,0.453,0.255c0.094,0,0.191-0.026,0.277-0.078
			c0.247-0.157,0.325-0.479,0.171-0.727c-0.007-0.013-0.026-0.042-0.055-0.094C11.6,15.505,11.819,15.684,11.926,15.948
			L11.926,15.948z M11.926,15.948"/>
	</g>
</g>
<g>
</g>
<g>
</g>
<g>
</g>
<g>
</g>
<g>
</g>
<g>
</g>
<g>
</g>
<g>
</g>
<g>
</g>
<g>
</g>
<g>
</g>
<g>
</g>
<g>
</g>
<g>
</g>
<g>
</g>
</svg>
