<?xml version="1.0" encoding="utf-8"?>
<!-- Generator: Adobe Illustrator 17.0.0, SVG Export Plug-In . SVG Version: 6.00 Build 0)  -->
<!DOCTYPE svg PUBLIC "-//W3C//DTD SVG 1.1//EN" "http://www.w3.org/Graphics/SVG/1.1/DTD/svg11.dtd">
<svg version="1.1" id="圖層_1" xmlns="http://www.w3.org/2000/svg" xmlns:xlink="http://www.w3.org/1999/xlink" x="0px" y="0px"
	 width="105.5px" height="68.928px" viewBox="0 0 105.5 68.928" enable-background="new 0 0 105.5 68.928" xml:space="preserve">
<polygon fill="#CFE8EA" points="41,23 104,23 32,59 "/>
<polygon opacity="0.3" fill="none" stroke="#414140" stroke-width="0.504" stroke-linecap="round" stroke-linejoin="round" stroke-miterlimit="10" stroke-dasharray="5.04" points="
	4,3 85,13.5 52.6,66 "/>
<rect id="_x3C_切片_x3E__26_" x="-6" y="-6" fill="none" width="111" height="78"/>
<g>
	<g>
		<path fill="#414140" d="M27.329,46.828h-1.5V46H19.25v0.812h-1.453v-5.227c-1.062,0.402-1.964,0.693-2.703,0.875l-0.852-1.289
			c2.438-0.656,4.489-1.408,6.156-2.258c-0.573-0.734-1.312-1.496-2.219-2.289c-0.828,0.521-1.661,1-2.5,1.438l-0.992-1.086
			c2.433-1.15,4.417-2.574,5.953-4.273l1.523,0.414c-0.203,0.245-0.472,0.534-0.805,0.867h5.664v1.375
			c-1.599,2.043-3.575,3.664-5.93,4.867h6.234V46.828z M25.829,44.594v-2.977H19.25v2.977H25.829z M25.055,35.359h-5.164
			c-0.188,0.168-0.359,0.305-0.516,0.414c0.901,0.812,1.675,1.621,2.32,2.422C22.998,37.395,24.118,36.449,25.055,35.359z"/>
		<path fill="#414140" d="M47.568,45.742l-0.922,1.172c-3.114-2.359-5.164-4.836-6.148-7.43c-0.771,2.906-2.812,5.355-6.125,7.344
			l-0.961-1.164c4.203-2.619,6.305-6.039,6.305-10.258v-2.554h1.516v3.289c0,1.74,0.582,3.445,1.746,5.113
			C44.142,42.924,45.672,44.42,47.568,45.742z"/>
		<path fill="#414140" d="M66.783,37.727l-0.75,1.281c-2.629-1.145-4.73-2.676-6.305-4.594c-1.557,1.803-3.668,3.293-6.336,4.469
			l-0.844-1.25c2.871-1.15,5.137-2.824,6.797-5.023l1.453,0.383c-0.035,0.109-0.104,0.232-0.203,0.367
			C62.18,35.234,64.242,36.691,66.783,37.727z M57.494,38.672c0,1.578-0.053,2.777-0.16,3.594c-0.105,0.818-0.395,1.615-0.863,2.391
			c-0.469,0.777-1.199,1.539-2.195,2.289l-1.141-1.039c0.906-0.656,1.564-1.309,1.973-1.957c0.41-0.648,0.668-1.34,0.777-2.078
			c0.109-0.736,0.164-1.803,0.164-3.199H57.494z M63.361,46.812h-1.484v-8.109h1.484V46.812z"/>
		<path fill="#414140" d="M74.021,43.133c-0.254,1.49-0.598,2.75-1.031,3.781l-1.18-0.641c0.371-0.916,0.686-2.064,0.945-3.445
			L74.021,43.133z M78.084,35.758c-1.238,2.1-2.5,3.789-3.781,5.07c0.531-0.094,1.162-0.23,1.891-0.414
			c-0.072-0.244-0.184-0.479-0.336-0.703l1.203-0.477c0.422,0.771,0.754,1.641,0.992,2.609l-1.172,0.477l-0.188-0.719
			c-1.391,0.35-2.863,0.66-4.422,0.93l-0.305-1.234c0.99-0.744,1.957-1.768,2.898-3.07l-2.492,0.336l-0.289-1.266
			c1.105-1.057,2.078-2.572,2.922-4.546l1.383,0.484c-0.697,1.468-1.525,2.738-2.484,3.804c0.605-0.031,1.246-0.121,1.922-0.273
			c0.375-0.516,0.707-1.059,0.992-1.633L78.084,35.758z M76.1,46.195l-1.266,0.398c-0.025-1.02-0.168-2.16-0.43-3.422l1.164-0.258
			C75.799,43.852,75.975,44.945,76.1,46.195z M78.162,45.508l-1.102,0.414c-0.166-0.91-0.465-1.902-0.898-2.977l1.164-0.305
			C77.666,43.531,77.943,44.488,78.162,45.508z M85.662,33.172c0,1.083-0.053,2.148-0.16,3.195
			c-0.105,1.047-0.193,1.686-0.262,1.914c-0.066,0.23-0.191,0.438-0.375,0.621c-0.182,0.186-0.473,0.305-0.871,0.355
			c-0.398,0.053-0.957,0.066-1.676,0.039l-0.508-1.438c0.256,0.012,0.82,0.016,1.695,0.016c0.203,0,0.344-0.125,0.422-0.375
			s0.168-1.229,0.266-2.938h-2.32c-0.254,2.309-1.385,4.023-3.391,5.148l-1.023-1.023c0.809-0.359,1.482-0.918,2.023-1.676
			c0.543-0.758,0.855-1.574,0.938-2.449h-2.578v-1.39H85.662z M85.279,46.828h-1.438v-0.781h-3.875v0.805h-1.422v-6.625h6.734
			V46.828z M83.842,44.672v-3.07h-3.875v3.07H83.842z"/>
	</g>
</g>
<g>
</g>
<g>
</g>
<g>
</g>
<g>
</g>
<g>
</g>
<g>
</g>
<g>
</g>
<g>
</g>
<g>
</g>
<g>
</g>
<g>
</g>
<g>
</g>
<g>
</g>
<g>
</g>
<g>
</g>
</svg>
