<?xml version="1.0" encoding="utf-8"?>
<!-- Generator: Adobe Illustrator 17.0.0, SVG Export Plug-In . SVG Version: 6.00 Build 0)  -->
<!DOCTYPE svg PUBLIC "-//W3C//DTD SVG 1.1//EN" "http://www.w3.org/Graphics/SVG/1.1/DTD/svg11.dtd">
<svg version="1.1" id="圖層_1" xmlns="http://www.w3.org/2000/svg" xmlns:xlink="http://www.w3.org/1999/xlink" x="0px" y="0px"
	 width="105.5px" height="68.928px" viewBox="0 0 105.5 68.928" enable-background="new 0 0 105.5 68.928" xml:space="preserve">
<polygon fill="#CFE8EA" points="41,23 104,23 32,59 "/>
<polygon opacity="0.3" fill="none" stroke="#414140" stroke-width="0.504" stroke-linecap="round" stroke-linejoin="round" stroke-miterlimit="10" stroke-dasharray="5.04" points="
	4,3 85,13.5 52.6,66 "/>
<rect id="_x3C_切片_x3E__26_" x="-6" y="-6" fill="none" width="111" height="78"/>
<g>
	<g>
		<path fill="#414140" d="M28.469,45.508l-0.594,1.32c-3.308-0.099-6.005-0.614-8.094-1.547c-1.495,0.891-3.159,1.44-4.992,1.648
			l-0.609-1.312c1.734-0.166,3.109-0.512,4.125-1.039c-0.797-0.479-1.479-1.002-2.047-1.57l1.086-0.828
			c0.823,0.73,1.534,1.24,2.133,1.531c0.5-0.469,0.802-1.113,0.906-1.938h-4.766v-6.305h4.992v-1.102h-6.156v-1.296h13.695v1.296
			h-6.133v1.102h4.914v6.305h-5.133c-0.146,1.1-0.461,1.938-0.945,2.516C22.805,45.014,25.344,45.42,28.469,45.508z M20.61,37.953
			v-1.188h-3.586v1.188H20.61z M20.532,39.219h-3.508v1.258h3.492C20.527,40.32,20.532,39.902,20.532,39.219z M25.508,40.477v-1.258
			h-3.555c-0.031,0.387-0.047,0.805-0.047,1.258H25.508z M25.508,37.953v-1.188H22v1.188H25.508z"/>
		<path fill="#414140" d="M45.552,35.203c-2.594,2.73-6.37,4.574-11.328,5.531l-0.672-1.266c2.38-0.379,4.269-0.869,5.664-1.469
			c-0.469-0.557-1.203-1.188-2.203-1.891c-0.984,0.527-1.808,0.912-2.469,1.156l-0.844-1.07c2.276-0.9,4.13-2.064,5.562-3.492
			l1.344,0.516c-0.167,0.208-0.401,0.453-0.703,0.734h5.648V35.203z M47.349,40.914c0,0.168-0.319,0.627-0.957,1.379
			c-0.638,0.754-1.333,1.387-2.086,1.902s-1.613,0.973-2.582,1.371s-2.05,0.71-3.242,0.934c-1.192,0.225-2.445,0.342-3.758,0.352
			l-0.578-1.328c2.641,0.062,4.966-0.338,6.977-1.203c-0.479-0.594-1.222-1.266-2.227-2.016c-1.151,0.568-2.266,1-3.344,1.297
			l-0.891-1.141c3-0.785,5.521-2.191,7.562-4.219l1.359,0.492c-0.239,0.293-0.521,0.592-0.844,0.898h4.609V40.914z M43.599,35.203
			h-5.164c-0.052,0.047-0.144,0.109-0.273,0.188c0.906,0.641,1.695,1.297,2.367,1.969C41.748,36.703,42.771,35.984,43.599,35.203z
			 M45.81,40.914h-4.609c-0.114,0.094-0.477,0.34-1.086,0.734c0.792,0.578,1.565,1.277,2.32,2.094
			C43.935,42.926,45.06,41.982,45.81,40.914z"/>
		<path fill="#414140" d="M66.752,45.664l-0.859,1.266c-2.426-0.891-4.477-1.994-6.148-3.312c-1.807,1.434-3.902,2.498-6.289,3.195
			l-0.797-1.273c2.562-0.822,4.543-1.789,5.938-2.898c-1.229-1.27-2.262-3.004-3.102-5.203l1.375-0.555
			c0.781,2.121,1.73,3.715,2.844,4.781c1.162-1.129,2.092-2.824,2.789-5.086h-9.734v-1.43h6.117
			c-0.316-0.707-0.697-1.379-1.141-2.015l1.492-0.477c0.559,0.912,0.98,1.742,1.266,2.492h6.156v1.43H64.08
			c-0.801,2.621-1.871,4.641-3.211,6.062C62.24,43.74,64.201,44.748,66.752,45.664z"/>
		<path fill="#414140" d="M85.842,44.93h-6.273v1.867h-1.359V44.93h-6.305v-1.172h6.305v-0.844h-4.797v-4.898h10.992v4.898h-4.836
			v0.844h6.273V44.93z M85.842,37.266H71.92v-1.156h3.523l-0.609-1.164h-2.336v-1.14h5.523c-0.109-0.182-0.281-0.401-0.516-0.656
			l1.438-0.414c0.287,0.344,0.531,0.701,0.734,1.07h5.617v1.14h-2.32c-0.047,0.094-0.285,0.482-0.719,1.164h3.586V37.266z
			 M83.006,39.922v-0.805h-8.203v0.805H83.006z M83.006,41.773v-0.797h-8.203v0.797H83.006z M81.396,34.945H76.42l0.539,1.164h3.695
			C80.998,35.668,81.246,35.279,81.396,34.945z"/>
	</g>
</g>
<g>
</g>
<g>
</g>
<g>
</g>
<g>
</g>
<g>
</g>
<g>
</g>
<g>
</g>
<g>
</g>
<g>
</g>
<g>
</g>
<g>
</g>
<g>
</g>
<g>
</g>
<g>
</g>
<g>
</g>
</svg>
